# xmcd
#
# Track frame offsets: 
#        150
#        16717
#        38407
#        59040
#        81635
#        100980
#        121002
#        146220
#        161917
#        186887
#        201227
#        221032
#
# Disc length: 3150 seconds
#
# Revision: 1
# Processed by: cddbd v1.5.2PL0 Copyright (c) Steve Scherf et al.
# Submitted via: ExactAudioCopy v1.0b3
#
DISCID=b00c4c0c
DTITLE=Son Ca - Ngay Cuoi Em 1
DYEAR=1992
DGENRE=
TTITLE0=Son Ca, Bui Thien - Tinh ta voi minh
TTITLE1=Ta ao cuoi
TTITLE2=Ngay cuoi em
TTITLE3=Son Ca, Tuan Dat - Duong ve que huong
TTITLE4=Xe hoa mot chiec
TTITLE5=Son Ca, Tuan Dung - Be yeu
TTITLE6=Son Ca, Bui Thien - Dua em xuong thuyen
TTITLE7=Thien dang ai an (Thien duong tinh ai)
TTITLE8=Son Ca, Tuan Minh - Dam cuoi tren duong que
TTITLE9=Chi co em
TTITLE10=Son Ca, Khanh Dung - Tau ve que huong
TTITLE11=Ngay hanh phuc
EXTD=
EXTT0=
EXTT1=
EXTT2=
EXTT3=
EXTT4=
EXTT5=
EXTT6=
EXTT7=
EXTT8=
EXTT9=
EXTT10=
EXTT11=
PLAYORDER=
